<svg width="600" height="233" xmlns="http://www.w3.org/2000/svg">
 <g id="Layer_1">
  <title>Layer 1</title>
  <g id="svg_10">
   <text transform="matrix(2.67139, 0, 0, 2.35091, -256.668, -230.271)" font-weight="bold" xml:space="preserve" text-anchor="start" font-family="Noto Sans JP" font-size="24" stroke-width="0" id="svg_2" y="153.41707" x="112.03665" stroke="#000" fill="#7a624e">Nicolino Restobar</text>
   <rect id="svg_3" height="6" width="540" y="2.34068" x="26.96698" stroke-width="0" fill="#79a957"/>
   <rect id="svg_4" height="6" width="540" y="224.34068" x="22.96698" stroke-width="0" fill="#79a957"/>
   <rect stroke-opacity="0" id="svg_6" height="6" width="415.75365" y="31.33747" x="91.71637" stroke-width="0" stroke="#0f0f00" fill="#79a957"/>
   <rect id="svg_7" height="6" width="415.75365" y="195.38539" x="93.71695" stroke-width="0" fill="#79a957"/>
   <path id="svg_8" d="m536.28429,151.86142c2.65455,-8.24872 6.28789,-15.23454 9.73435,-18.71616c3.69233,-3.73 2.05417,-5.34796 -1.75477,-1.73313c-1.60247,1.52079 -2.06031,0.41653 -2.06031,-4.96919c0,-12.8499 7.01885,-20.80105 23.90656,-27.082c14.28951,-5.31463 24.82453,-11.29128 29.19258,-16.56134l3.55942,-4.29447l0,7.47195c0,9.23918 -3.02038,23.19735 -6.36367,29.40859c-3.54663,6.58905 -15.70314,18.75145 -21.66853,21.67906c-5.34447,2.6229 -16.75853,3.39506 -22.85881,1.54641c-3.04002,-0.92125 -4.00483,-0.21737 -5.58001,4.07091c-1.04745,2.85159 -1.90446,6.90843 -1.90446,9.01516c0,2.39172 -1.01077,3.83041 -2.69109,3.83041c-1.99572,0 -2.38622,-0.94732 -1.51126,-3.6662l0,0z" stroke-width="0" stroke="#000" fill="#7a624e"/>
   <path transform="rotate(0.171824, 46.0957, 186.442)" id="svg_9" d="m26.59246,209.33018c-1.48257,2.65282 -2.5206,4.0453 -7.5639,5.43603c-0.89119,0.37903 0.29572,1.2639 0.89119,1.137c4.44782,-1.51599 5.48583,-2.78153 7.5639,-5.56298c1.03803,3.54118 3.40979,5.81675 7.41505,7.20748l0.29772,-0.75971c5.48786,2.52942 9.63997,3.03537 13.19863,2.40254c3.41179,-0.63278 7.41505,-1.13695 10.68,-0.75792c-2.07607,-1.39085 -3.26495,-3.03535 -3.70754,-5.05715c3.40982,-3.03525 10.08456,-1.89661 13.34751,-3.66639l-0.74231,-1.39246c7.11933,-2.02182 13.20063,-5.30921 21.65372,-4.29739l-13.94095,-8.59828l0.29572,-1.13871c-4.15211,-2.65455 -8.89765,-3.28739 -14.23864,-1.51591c1.78032,-4.42605 0,-9.22942 4.89639,-12.64358c-1.18688,-1.89666 0,-4.55124 2.07607,-6.95378c0.29775,-4.55121 1.77832,-8.59743 4.44782,-12.26385c-4.30095,2.40254 -8.59993,4.55121 -13.04976,6.44874l-0.74231,-1.39159c-1.77832,2.40334 -4.30098,4.1731 -7.71277,5.18315l-0.59344,-1.39073c-4.5987,3.92017 -10.08456,5.94196 -13.49638,11.63353c1.03803,-5.56467 -0.89116,-11.00075 -3.56064,-15.42595l-1.03803,0.88571c-1.92719,-5.43692 -8.7488,-8.97726 -13.04976,-13.40244c1.77832,12.1377 -3.41382,13.65453 -3.26298,20.35622l-1.78232,0.12514c2.52263,6.82857 -0.88919,9.98905 0.74231,14.66719c-4.15211,-1.76979 -9.49312,-0.50593 -13.05179,-3.28741c4.30095,5.81683 5.78558,12.89574 13.05179,17.70075l-1.03803,0.37903c2.66948,2.52768 6.0813,4.67814 12.01373,5.94372z" stroke-width="0" stroke="#000" fill="#7a624e"/>
  </g>
 </g>
</svg>